HIERARCHY
ROOT Root
{
  OFFSET 0.0 0.0 0.0
  CHANNELS 6 Xposition Yposition Zposition Zrotation Yrotation Xrotation
  JOINT Hips
  {
    OFFSET 0.0 100.0 0.0
    CHANNELS 6 Xposition Yposition Zposition Zrotation Yrotation Xrotation
    JOINT Spine1
    {
      OFFSET 5.003913 -0.037094 -0.013727
      CHANNELS 3 Zrotation Yrotation Xrotation
      JOINT Spine2
      {
        OFFSET 7.125363 -1e-06 0.0
        CHANNELS 3 Zrotation Yrotation Xrotation
        JOINT Chest
        {
          OFFSET 7.594027 1e-06 0.0
          CHANNELS 3 Zrotation Yrotation Xrotation
          JOINT Neck1
          {
            OFFSET 26.313086 -0.460272 -0.181672
            CHANNELS 3 Zrotation Yrotation Xrotation
            JOINT Neck2
            {
              OFFSET 8.045911 0.0 0.0
              CHANNELS 3 Zrotation Yrotation Xrotation
              JOINT Head
              {
                OFFSET 6.432774 0.0 0.0
                CHANNELS 3 Zrotation Yrotation Xrotation
                JOINT HeadEnd
                {
                  OFFSET 16.169773 0.06451 0.00362
                  CHANNELS 3 Zrotation Yrotation Xrotation
                }
                JOINT Jaw
                {
                  OFFSET 0.108741 3.12938 0.002639
                  CHANNELS 3 Zrotation Yrotation Xrotation
                }
                JOINT LeftEye
                {
                  OFFSET 4.45173 8.166359 3.206392
                  CHANNELS 3 Zrotation Yrotation Xrotation
                }
                JOINT RightEye
                {
                  OFFSET 4.436895 8.135758 -3.222429
                  CHANNELS 3 Zrotation Yrotation Xrotation
                }
              }
            }
          }
          JOINT LeftShoulder
          {
            OFFSET 23.218927 5.195579 1.621656
            CHANNELS 3 Zrotation Yrotation Xrotation
            JOINT LeftArm
            {
              OFFSET 15.902118 2e-06 -2e-06
              CHANNELS 3 Zrotation Yrotation Xrotation
              JOINT LeftForeArm
              {
                OFFSET 28.739307 0.0 -1e-06
                CHANNELS 3 Zrotation Yrotation Xrotation
                JOINT LeftHand
                {
                  OFFSET 27.093981 -4e-06 0.0
                  CHANNELS 3 Zrotation Yrotation Xrotation
                  JOINT LeftHandThumb1
                  {
                    OFFSET 2.276781 3.380274 0.83384
                    CHANNELS 3 Zrotation Yrotation Xrotation
                    JOINT LeftHandThumb2
                    {
                      OFFSET 4.705309 -1e-06 -1e-06
                      CHANNELS 3 Zrotation Yrotation Xrotation
                      JOINT LeftHandThumb3
                      {
                        OFFSET 2.798515 0.0 3e-06
                        CHANNELS 3 Zrotation Yrotation Xrotation
                        JOINT LeftHandThumbEnd
                        {
                          OFFSET 3.180793 4e-06 -4e-06
                          CHANNELS 3 Zrotation Yrotation Xrotation
                        }
                      }
                    }
                  }
                  JOINT LeftHandIndex1
                  {
                    OFFSET 3.247786 2.352677 0.137192
                    CHANNELS 3 Zrotation Yrotation Xrotation
                    JOINT LeftHandIndex2
                    {
                      OFFSET 6.367095 1e-06 0.0
                      CHANNELS 3 Zrotation Yrotation Xrotation
                      JOINT LeftHandIndex3
                      {
                        OFFSET 3.662364 0.0 0.0
                        CHANNELS 3 Zrotation Yrotation Xrotation
                        JOINT LeftHandIndex4
                        {
                          OFFSET 2.329242 4e-06 -4e-06
                          CHANNELS 3 Zrotation Yrotation Xrotation
                          JOINT LeftHandIndexEnd
                          {
                            OFFSET 2.767823 1e-06 0.0
                            CHANNELS 3 Zrotation Yrotation Xrotation
                          }
                        }
                      }
                    }
                  }
                  JOINT LeftHandMiddle1
                  {
                    OFFSET 3.163612 0.945023 -0.406112
                    CHANNELS 3 Zrotation Yrotation Xrotation
                    JOINT LeftHandMiddle2
                    {
                      OFFSET 6.276789 3e-06 0.0
                      CHANNELS 3 Zrotation Yrotation Xrotation
                      JOINT LeftHandMiddle3
                      {
                        OFFSET 4.35652 -1e-06 4e-06
                        CHANNELS 3 Zrotation Yrotation Xrotation
                        JOINT LeftHandMiddle4
                        {
                          OFFSET 2.996877 0.0 8e-06
                          CHANNELS 3 Zrotation Yrotation Xrotation
                          JOINT LeftHandMiddleEnd
                          {
                            OFFSET 2.323256 3e-06 -4e-06
                            CHANNELS 3 Zrotation Yrotation Xrotation
                          }
                        }
                      }
                    }
                  }
                  JOINT LeftHandRing1
                  {
                    OFFSET 2.882606 -0.309162 0.107445
                    CHANNELS 3 Zrotation Yrotation Xrotation
                    JOINT LeftHandRing2
                    {
                      OFFSET 6.033198 0.0 4e-06
                      CHANNELS 3 Zrotation Yrotation Xrotation
                      JOINT LeftHandRing3
                      {
                        OFFSET 4.350578 3e-06 0.0
                        CHANNELS 3 Zrotation Yrotation Xrotation
                        JOINT LeftHandRing4
                        {
                          OFFSET 2.651321 2e-06 -7e-06
                          CHANNELS 3 Zrotation Yrotation Xrotation
                          JOINT LeftHandRingEnd
                          {
                            OFFSET 1.937663 1e-06 -4e-06
                            CHANNELS 3 Zrotation Yrotation Xrotation
                          }
                        }
                      }
                    }
                  }
                  JOINT LeftHandPinky1
                  {
                    OFFSET 2.865315 -1.525436 0.575687
                    CHANNELS 3 Zrotation Yrotation Xrotation
                    JOINT LeftHandPinky2
                    {
                      OFFSET 5.54936 1e-06 -8e-06
                      CHANNELS 3 Zrotation Yrotation Xrotation
                      JOINT LeftHandPinky3
                      {
                        OFFSET 3.070974 0.0 -4e-06
                        CHANNELS 3 Zrotation Yrotation Xrotation
                        JOINT LeftHandPinky4
                        {
                          OFFSET 1.549672 1e-06 0.0
                          CHANNELS 3 Zrotation Yrotation Xrotation
                          JOINT LeftHandPinkyEnd
                          {
                            OFFSET 1.952123 0.0 0.0
                            CHANNELS 3 Zrotation Yrotation Xrotation
                          }
                        }
                      }
                    }
                  }
                }
              }
            }
          }
          JOINT RightShoulder
          {
            OFFSET 23.161716 5.296122 -1.380114
            CHANNELS 3 Zrotation Yrotation Xrotation
            JOINT RightArm
            {
              OFFSET -16.027195 -2e-06 1.1e-05
              CHANNELS 3 Zrotation Yrotation Xrotation
              JOINT RightForeArm
              {
                OFFSET -28.736639 4e-06 2e-06
                CHANNELS 3 Zrotation Yrotation Xrotation
                JOINT RightHand
                {
                  OFFSET -27.133619 6e-06 0.0
                  CHANNELS 3 Zrotation Yrotation Xrotation
                  JOINT RightHandThumb1
                  {
                    OFFSET -2.274328 -3.351035 -0.83067
                    CHANNELS 3 Zrotation Yrotation Xrotation
                    JOINT RightHandThumb2
                    {
                      OFFSET -4.703594 -3e-06 2e-06
                      CHANNELS 3 Zrotation Yrotation Xrotation
                      JOINT RightHandThumb3
                      {
                        OFFSET -2.794935 -4e-06 -3e-06
                        CHANNELS 3 Zrotation Yrotation Xrotation
                        JOINT RightHandThumbEnd
                        {
                          OFFSET -3.183852 4e-06 1e-06
                          CHANNELS 3 Zrotation Yrotation Xrotation
                        }
                      }
                    }
                  }
                  JOINT RightHandIndex1
                  {
                    OFFSET -3.253496 -2.33755 -0.127667
                    CHANNELS 3 Zrotation Yrotation Xrotation
                    JOINT RightHandIndex2
                    {
                      OFFSET -6.344434 0.0 0.0
                      CHANNELS 3 Zrotation Yrotation Xrotation
                      JOINT RightHandIndex3
                      {
                        OFFSET -3.654871 0.0 -8e-06
                        CHANNELS 3 Zrotation Yrotation Xrotation
                        JOINT RightHandIndex4
                        {
                          OFFSET -2.327586 -1e-06 0.0
                          CHANNELS 3 Zrotation Yrotation Xrotation
                          JOINT RightHandIndexEnd
                          {
                            OFFSET -2.770001 3e-06 8e-06
                            CHANNELS 3 Zrotation Yrotation Xrotation
                          }
                        }
                      }
                    }
                  }
                  JOINT RightHandMiddle1
                  {
                    OFFSET -3.168223 -0.944764 0.411762
                    CHANNELS 3 Zrotation Yrotation Xrotation
                    JOINT RightHandMiddle2
                    {
                      OFFSET -6.266691 -1e-06 -4e-06
                      CHANNELS 3 Zrotation Yrotation Xrotation
                      JOINT RightHandMiddle3
                      {
                        OFFSET -4.348901 0.0 0.0
                        CHANNELS 3 Zrotation Yrotation Xrotation
                        JOINT RightHandMiddle4
                        {
                          OFFSET -3.00024 2e-06 -4e-06
                          CHANNELS 3 Zrotation Yrotation Xrotation
                          JOINT RightHandMiddleEnd
                          {
                            OFFSET -2.321477 -4e-06 -4e-06
                            CHANNELS 3 Zrotation Yrotation Xrotation
                          }
                        }
                      }
                    }
                  }
                  JOINT RightHandRing1
                  {
                    OFFSET -2.885654 0.293261 -0.119232
                    CHANNELS 3 Zrotation Yrotation Xrotation
                    JOINT RightHandRing2
                    {
                      OFFSET -6.032835 -1e-06 -4e-06
                      CHANNELS 3 Zrotation Yrotation Xrotation
                      JOINT RightHandRing3
                      {
                        OFFSET -4.33881 0.0 -4e-06
                        CHANNELS 3 Zrotation Yrotation Xrotation
                        JOINT RightHandRing4
                        {
                          OFFSET -2.654903 -4e-06 -4e-06
                          CHANNELS 3 Zrotation Yrotation Xrotation
                          JOINT RightHandRingEnd
                          {
                            OFFSET -1.935122 0.0 4e-06
                            CHANNELS 3 Zrotation Yrotation Xrotation
                          }
                        }
                      }
                    }
                  }
                  JOINT RightHandPinky1
                  {
                    OFFSET -2.866241 1.503904 -0.60527
                    CHANNELS 3 Zrotation Yrotation Xrotation
                    JOINT RightHandPinky2
                    {
                      OFFSET -5.553177 -2e-06 0.0
                      CHANNELS 3 Zrotation Yrotation Xrotation
                      JOINT RightHandPinky3
                      {
                        OFFSET -3.062664 -1e-06 -4e-06
                        CHANNELS 3 Zrotation Yrotation Xrotation
                        JOINT RightHandPinky4
                        {
                          OFFSET -1.546529 2e-06 4e-06
                          CHANNELS 3 Zrotation Yrotation Xrotation
                          JOINT RightHandPinkyEnd
                          {
                            OFFSET -1.952341 0.0 -4e-06
                            CHANNELS 3 Zrotation Yrotation Xrotation
                          }
                        }
                      }
                    }
                  }
                }
              }
            }
          }
        }
      }
    }
    JOINT LeftLeg
    {
      OFFSET -8.443107 2.567604 10.043214
      CHANNELS 3 Zrotation Yrotation Xrotation
      JOINT LeftShin
      {
        OFFSET 43.229198 1e-06 -1e-06
        CHANNELS 3 Zrotation Yrotation Xrotation
        JOINT LeftFoot
        {
          OFFSET 42.298611 1e-06 1e-06
          CHANNELS 3 Zrotation Yrotation Xrotation
          JOINT LeftToeBase
          {
            OFFSET 14.165858 1e-06 0.0
            CHANNELS 3 Zrotation Yrotation Xrotation
            JOINT LeftToeEnd
            {
              OFFSET 6.7141 -0.234461 0.0
              CHANNELS 3 Zrotation Yrotation Xrotation
            }
          }
        }
      }
    }
    JOINT RightLeg
    {
      OFFSET -8.303923 2.592729 -10.047278
      CHANNELS 3 Zrotation Yrotation Xrotation
      JOINT RightShin
      {
        OFFSET -43.369682 0.0 1e-06
        CHANNELS 3 Zrotation Yrotation Xrotation
        JOINT RightFoot
        {
          OFFSET -42.260784 4e-06 2e-06
          CHANNELS 3 Zrotation Yrotation Xrotation
          JOINT RightToeBase
          {
            OFFSET -14.222245 -2e-06 -1e-06
            CHANNELS 3 Zrotation Yrotation Xrotation
            JOINT RightToeEnd
            {
              OFFSET -6.660062 0.232574 -2e-06
              CHANNELS 3 Zrotation Yrotation Xrotation
            }
          }
        }
      }
    }
  }
}
MOTION
Frames: 4
Frame Time: 0.03333333333333333
0.0 0.0 0.0 0.0 -0.0 0.0 -0.715559 99.275383 0.035473 91.712746 0.384841 92.13723 -5.932705 0.167308 0.093596 -12.877823 -0.284246 0.725608 16.853012 -1.677996 -1.746445 19.812922 -3.01086 2.413051 -2.624064 -0.273705 2.584 -30.600731 3.423875 -1.340452 7e-06 0.0 -0.0 0.025884 0.030494 0.109515 0.069036 -0.010946 0.134565 0.113034 0.064289 0.095639 -95.939194 -78.525146 102.578415 40.305817 -3.152929 -65.9151 30.639679 0.498271 -1.087166 1.162348 7.995074 -66.114899 17.636633 -26.322733 52.411205 -19.46666 -14.395594 29.410389 -2e-06 -8.774821 -2e-06 15.694164 -17.187092 6.156434 -0.609775 -1.795655 -3.889328 -4.807089 -11.046809 -2.937852 6e-06 -20.976019 1e-06 -5.019967 -25.033558 -4.031879 6e-06 -2e-06 -2e-06 -10.634535 -5.686968 -3.565587 10.573275 -17.922953 -3.113899 3e-06 -13.821209 2e-06 -0.501777 -31.181505 -4.027013 -12.020751 -60.674511 7.540377 -13.982716 -7.150197 -2.875043 13.772731 -8.401491 -3.218241 0.347734 -34.211555 0.771658 -0.963026 -17.733372 2.621022 0.0 0.0 2e-06 -17.346416 -20.095217 -4.201785 21.757557 -1.638376 3.866428 3e-06 -6.338823 2e-06 -1.697589 -22.591745 -6.194005 -1e-06 -4e-06 -2e-06 110.538765 -85.498459 79.590912 17.028955 -7.720426 -63.529202 27.335306 -0.359802 -0.064235 7.100968 14.662509 -47.58231 22.182121 -20.375891 49.933304 -16.701815 -16.74353 28.476526 -3e-06 -12.690601 -2e-06 16.856945 -17.084394 2.513234 -0.105918 -1.513858 -4.27588 -5.039041 -5.61287 -2.953556 7e-06 -11.02052 -1e-06 -6.111298 -15.895329 -3.840469 0.0 -0.0 -0.0 -10.283371 -5.680291 -4.341838 11.028295 -11.302403 -2.372633 -1.384271 -14.238579 -6.320117 -0.625436 -26.924187 -3.8276 -4.340137 -50.235973 -3.17429 -13.708527 -7.363473 -3.720938 18.141151 -14.052739 -3.242673 4e-06 -18.78727 0.0 -0.429711 -8.456043 2.555504 1e-06 1e-06 1e-06 -15.923534 -20.094482 -5.473585 30.41921 -7.190823 1.735928 6e-06 -8.162927 -2e-06 -1.861903 -22.861467 -6.167941 -1e-06 -3e-06 -1e-06 174.536591 -1.259411 -13.274333 19.710236 -0.013811 0.094642 -82.479454 3.629357 0.494273 -4.493542 1.23753 2.073861 -0.999999 0.0 0.0 -2.297968 -7.77399 -5.848575 18.777588 0.058675 0.020292 -84.305641 -1.257569 -6.459719 -4.713725 0.724219 1.707528 -1.000002 0.0 -0.0 
0.0 0.0 0.0 0.0 -0.0 0.0 -0.678161 99.277481 0.011478 91.73774 0.421025 92.089798 -5.926925 0.160029 0.105342 -12.88172 -0.275671 0.722326 16.843599 -1.661552 -1.759982 19.693668 -2.929739 2.386471 -2.614571 -0.274455 2.559264 -30.580595 3.41885 -1.428934 6e-06 -0.0 -0.0 0.02554 0.032098 0.115673 0.086435 -0.00914 0.141826 0.129701 0.065816 0.100857 -95.834183 -78.613014 102.491219 40.236481 -3.185539 -65.936684 30.522013 0.427839 -1.038193 1.192365 7.839531 -65.716576 17.636621 -26.322735 52.411205 -19.466665 -14.395602 29.410395 -3e-06 -8.774822 -1e-06 15.658226 -17.172575 6.151269 -0.609778 -1.795653 -3.889328 -4.807086 -11.046809 -2.93785 6e-06 -20.976015 0.0 -5.019968 -25.033556 -4.031882 8e-06 -1e-06 1e-06 -10.634532 -5.68697 -3.565588 10.573275 -17.922951 -3.113901 4e-06 -13.821209 1e-06 -0.501774 -31.181505 -4.027015 -11.976246 -60.654671 7.508594 -13.982714 -7.1502 -2.87504 13.772731 -8.401489 -3.218244 0.347738 -34.211552 0.771654 -0.96303 -17.73337 2.62102 1e-06 -0.0 1e-06 -17.346415 -20.095213 -4.20178 21.757555 -1.638376 3.866426 3e-06 -6.338824 1e-06 -1.697588 -22.591743 -6.194005 -0.0 -3e-06 -1e-06 110.592003 -85.447922 79.548439 17.036896 -7.751822 -63.418621 27.356018 -0.363164 -0.041994 7.120956 14.731441 -47.172752 22.182119 -20.375893 49.933308 -16.701817 -16.743526 28.476524 -3e-06 -12.690601 -1e-06 16.810934 -17.042437 2.531534 -0.105921 -1.513856 -4.275881 -5.039039 -5.612871 -2.953556 5e-06 -11.02052 -2e-06 -6.111297 -15.895332 -3.840472 0.0 -0.0 0.0 -10.283371 -5.680288 -4.341837 11.028294 -11.302402 -2.372633 -1.384266 -14.238581 -6.320122 -0.625436 -26.924187 -3.827603 -4.359831 -50.241539 -3.149503 -13.708525 -7.363476 -3.720938 18.14115 -14.052736 -3.242675 5e-06 -18.787264 -3e-06 -0.42971 -8.45604 2.555503 2e-06 1e-06 2e-06 -15.923534 -20.094482 -5.473585 30.41921 -7.190825 1.735927 4e-06 -8.162927 -1e-06 -1.861902 -22.861467 -6.167942 -0.0 -3e-06 -1e-06 174.608078 -1.22175 -13.335869 19.655258 -0.015043 0.091459 -82.454231 3.643458 0.502576 -4.506967 1.240088 2.072794 -0.999998 -0.0 -0.0 -2.271074 -7.829113 -5.871871 18.775524 0.062435 0.028723 -84.286552 -1.184269 -6.428394 -4.758955 0.727228 1.704787 -1.000003 -0.0 -0.0 
0.0 0.0 0.0 0.0 -0.0 0.0 -0.63473 99.276855 -0.005359 91.772133 0.435577 92.035118 -5.923597 0.151662 0.099217 -12.901975 -0.273658 0.710622 16.833382 -1.634331 -1.753882 19.542974 -2.843116 2.36234 -2.608428 -0.284489 2.539009 -30.580013 3.386216 -1.498027 6e-06 -0.0 -0.0 0.024743 0.034368 0.124353 0.099948 -0.006419 0.150775 0.140528 0.06791 0.109096 -95.658607 -78.700439 102.357315 40.170231 -3.255811 -65.886017 30.355715 0.413342 -0.967089 1.195047 7.706222 -65.322624 17.636625 -26.322729 52.411194 -19.466661 -14.395596 29.410389 -1e-06 -8.774822 -2e-06 15.605582 -17.175903 6.170751 -0.609775 -1.795653 -3.889328 -4.807089 -11.046813 -2.93785 5e-06 -20.976019 0.0 -5.01997 -25.03356 -4.031882 6e-06 -0.0 -0.0 -10.634532 -5.686967 -3.565588 10.573272 -17.922953 -3.113902 3e-06 -13.821209 1e-06 -0.501778 -31.181505 -4.027015 -11.959543 -60.628429 7.493013 -13.982712 -7.150198 -2.87504 13.772731 -8.401495 -3.218243 0.347735 -34.211555 0.771656 -0.963028 -17.73337 2.62102 0.0 0.0 1e-06 -17.346416 -20.095213 -4.201783 21.757557 -1.638377 3.866427 2e-06 -6.338822 1e-06 -1.69759 -22.591743 -6.194006 -0.0 -4e-06 -2e-06 110.494072 -85.421021 79.68589 17.052235 -7.76444 -63.271015 27.314507 -0.332583 -0.018997 7.104592 14.763919 -46.768326 22.182106 -20.375895 49.933319 -16.701811 -16.743528 28.47653 -4e-06 -12.690599 0.0 16.752096 -17.035707 2.538568 -0.105919 -1.513855 -4.275882 -5.039038 -5.612869 -2.953557 5e-06 -11.020519 -2e-06 -6.111296 -15.89533 -3.84047 -1e-06 -1e-06 0.0 -10.283367 -5.680286 -4.341841 11.028289 -11.302402 -2.37263 -1.384266 -14.238578 -6.320121 -0.625438 -26.924183 -3.8276 -4.371375 -50.171997 -3.125797 -13.708522 -7.363475 -3.720939 18.14115 -14.052738 -3.242678 6e-06 -18.787266 -0.0 -0.429713 -8.456043 2.555502 0.0 1e-06 0.0 -15.923532 -20.094482 -5.473585 30.419207 -7.190823 1.735925 4e-06 -8.162929 -1e-06 -1.861903 -22.861467 -6.167943 -1e-06 -4e-06 -1e-06 174.649826 -1.172851 -13.383484 19.612761 -0.013689 0.077945 -82.435623 3.633129 0.510734 -4.518771 1.240162 2.070492 -0.999999 -0.0 0.0 -2.28154 -7.906843 -5.935752 18.809862 0.065589 0.031708 -84.285446 -1.054172 -6.393056 -4.785122 0.727437 1.701308 -1.000003 0.0 0.0 
0.0 0.0 0.0 0.0 -0.0 0.0 -0.585153 99.274368 -0.016815 91.81546 0.440049 91.967896 -5.926101 0.142931 0.080896 -12.922223 -0.280988 0.692311 16.823372 -1.603266 -1.739577 19.363029 -2.757932 2.348579 -2.614437 -0.293621 2.540666 -30.572054 3.343742 -1.531597 6e-06 0.0 -0.0 0.02029 0.035143 0.129009 0.098099 -0.003324 0.153874 0.137825 0.066567 0.114714 -95.444252 -78.756241 102.208611 40.10947 -3.344802 -65.765823 30.174665 0.441893 -0.905758 1.223838 7.626734 -65.031578 17.636635 -26.322733 52.411205 -19.466661 -14.395596 29.410395 -1e-06 -8.774822 -3e-06 15.563568 -17.194538 6.184633 -0.609776 -1.795656 -3.889326 -4.807087 -11.04681 -2.937852 5e-06 -20.976021 1e-06 -5.019969 -25.03356 -4.031882 5e-06 -1e-06 -0.0 -10.634535 -5.686972 -3.565587 10.573276 -17.922953 -3.113899 2e-06 -13.821211 2e-06 -0.501779 -31.181507 -4.027016 -11.949938 -60.586395 7.467995 -13.982714 -7.150196 -2.875046 13.77273 -8.401493 -3.218241 0.347732 -34.211555 0.771658 -0.96303 -17.73337 2.62102 1e-06 1e-06 1e-06 -17.346422 -20.095221 -4.201779 21.757559 -1.638376 3.866431 0.0 -6.33882 2e-06 -1.697586 -22.591742 -6.194008 -0.0 -4e-06 -1e-06 110.322342 -85.429108 79.899261 17.059702 -7.770388 -63.140156 27.236223 -0.301863 0.010917 7.06906 14.75869 -46.333893 22.182114 -20.375895 49.933327 -16.701815 -16.743528 28.476536 -2e-06 -12.690601 0.0 16.691496 -17.064102 2.540075 -0.10592 -1.513855 -4.275882 -5.039042 -5.612873 -2.953557 3e-06 -11.020523 -2e-06 -6.1113 -15.895338 -3.840472 0.0 0.0 0.0 -10.283371 -5.68029 -4.341842 11.028295 -11.302401 -2.372631 -1.384267 -14.238585 -6.320125 -0.625436 -26.924194 -3.827604 -4.376409 -50.074299 -3.111341 -13.708526 -7.363476 -3.720939 18.141153 -14.052739 -3.242676 6e-06 -18.787271 -1e-06 -0.42971 -8.456047 2.555502 1e-06 1e-06 1e-06 -15.923536 -20.09449 -5.473588 30.419218 -7.190826 1.735927 3e-06 -8.16293 -2e-06 -1.8619 -22.861473 -6.167947 -1e-06 -3e-06 -1e-06 174.682999 -1.10868 -13.417553 19.572186 -0.010751 0.058831 -82.422485 3.593374 0.501651 -4.537435 1.234131 2.068573 -0.999998 -0.0 -0.0 -2.314902 -7.992332 -5.991712 18.868826 0.067682 0.026739 -84.301712 -0.921153 -6.356905 -4.788366 0.720938 1.696724 -1.000001 -0.0 -0.0 
